<svg height="512pt" viewBox="0 -21 512 512" width="512pt" xmlns="http://www.w3.org/2000/svg"><path d="m256 277.332031c-29.398438 0-53.332031-23.914062-53.332031-53.332031s23.933593-53.332031 53.332031-53.332031 53.332031 23.914062 53.332031 53.332031-23.933593 53.332031-53.332031 53.332031zm0-74.664062c-11.753906 0-21.332031 9.554687-21.332031 21.332031s9.578125 21.332031 21.332031 21.332031 21.332031-9.554687 21.332031-21.332031-9.578125-21.332031-21.332031-21.332031zm0 0"/><path d="m346.667969 405.332031c-8.832031 0-16-7.167969-16-16v-32c0-14.699219-11.96875-26.664062-26.667969-26.664062h-96c-14.699219 0-26.667969 11.964843-26.667969 26.664062v32c0 8.832031-7.167969 16-16 16s-16-7.167969-16-16v-32c0-32.363281 26.304688-58.664062 58.667969-58.664062h96c32.363281 0 58.667969 26.300781 58.667969 58.664062v32c0 8.832031-7.167969 16-16 16zm0 0"/><path d="m453.332031 469.332031h-394.664062c-32.363281 0-58.667969-26.300781-58.667969-58.664062v-352c0-32.363281 26.304688-58.667969 58.667969-58.667969h394.664062c32.363281 0 58.667969 26.304688 58.667969 58.667969v352c0 32.363281-26.304688 58.664062-58.667969 58.664062zm-394.664062-437.332031c-14.699219 0-26.667969 11.96875-26.667969 26.667969v352c0 14.699219 11.96875 26.664062 26.667969 26.664062h394.664062c14.699219 0 26.667969-11.964843 26.667969-26.664062v-352c0-14.699219-11.96875-26.667969-26.667969-26.667969zm0 0"/><path d="m496 117.332031h-480c-8.832031 0-16-7.167969-16-16s7.167969-16 16-16h480c8.832031 0 16 7.167969 16 16s-7.167969 16-16 16zm0 0"/></svg>