<?xml version="1.0" encoding="iso-8859-1"?>
<!-- Generator: Adobe Illustrator 16.0.0, SVG Export Plug-In . SVG Version: 6.00 Build 0)  -->
<!DOCTYPE svg PUBLIC "-//W3C//DTD SVG 1.1//EN" "http://www.w3.org/Graphics/SVG/1.1/DTD/svg11.dtd">
<svg version="1.1" id="Capa_1" xmlns="http://www.w3.org/2000/svg" xmlns:xlink="http://www.w3.org/1999/xlink" x="0px" y="0px"
	 width="456.721px" height="456.721px" viewBox="0 0 456.721 456.721" style="enable-background:new 0 0 456.721 456.721;"
	 xml:space="preserve">
<g>
	<g id="Layer_8_18_">
		<path d="M96.121,368.72c-4.074-7.486-6.107-14.03-6.107-19.634c0-3.408,1.423-6.657,4.271-9.712
			c2.846-3.054,6.416-4.592,10.7-4.592c7.358,0,12.828,4.247,16.419,12.732c3.502,7.798,8.23,13.856,14.181,18.185
			c5.951,4.334,12.608,6.5,19.965,6.5c6.742,0,12.654-1.745,17.73-5.258c5.078-3.502,8.993-8.312,11.755-14.446
			c2.764-6.129,4.134-13.087,4.134-20.886c0-8.403-1.487-15.58-4.464-21.538c-2.974-5.958-6.959-10.393-11.952-13.33
			c-4.992-2.944-10.553-4.399-16.681-4.399c-7.531,0-12.917,0.921-16.155,2.757c-3.238,1.839-7.9,5.052-13.984,9.654
			c-6.085,4.606-11.094,6.894-15.039,6.894c-4.293,0-8.099-1.552-11.425-4.662c-3.331-3.113-4.993-6.638-4.993-10.578
			c0-0.437,0.48-3.408,1.447-8.935l11.031-62.906c1.228-7.532,3.502-13.001,6.832-16.419c3.328-3.417,8.759-5.122,16.283-5.122
			h69.341c13.66,0,20.486,5.212,20.486,15.628c0,4.555-1.667,8.228-4.994,11.029c-3.33,2.802-8.232,4.203-14.708,4.203h-62.371
			l-7.489,42.555c12.436-6.658,23.905-9.98,34.411-9.98c8.405,0,16.26,1.576,23.575,4.733c7.312,3.151,13.723,7.508,19.241,13.067
			c5.52,5.554,9.85,12.146,13,19.761c3.149,7.61,4.729,15.801,4.729,24.556c0,12.701-2.848,24.252-8.533,34.677
			c-5.688,10.418-13.896,18.692-24.627,24.821c-10.729,6.14-23.091,9.203-37.1,9.203c-15.671,0-28.386-2.899-38.152-8.667
			C107.109,382.832,100.194,376.205,96.121,368.72z M247.079,271.079c5.002,0,8.779-1.577,11.36-4.734
			c2.583-3.152,4.903-7.656,6.949-13.521c2.058-5.872,3.534-9.46,4.398-10.775c6.569-10.067,15.585-15.097,27.057-15.097
			c5.426,0,10.44,1.226,15.045,3.672c4.608,2.451,8.23,5.893,10.892,10.314c2.676,4.421,4.004,9.434,4.004,15.037
			c0,5.171-1.248,10.44-3.742,15.825c-2.484,5.384-6.129,10.632-10.888,15.754c-4.771,5.132-10.749,10.221-17.929,15.3
			c-4.026,2.714-10.725,8.382-20.093,17.006c-9.366,8.624-19.875,18.979-31.517,31.06c-2.802,2.978-5.387,7.072-7.75,12.279
			c-2.362,5.204-3.554,9.39-3.554,12.531c0,4.902,1.838,9.184,5.517,12.804c3.673,3.623,8.795,5.462,15.36,5.462h96.66
			c5.775,0,10.089-1.499,12.934-4.465c2.848-2.978,4.281-6.621,4.281-10.901c0-4.814-1.797-8.623-5.385-11.425
			c-3.603-2.802-8.801-4.203-15.63-4.203h-68.554c2.2-3.324,4.334-6.183,6.436-8.536c4.902-5.953,13.932-14.314,27.121-25.083
			c13.186-10.77,22.554-18.671,28.159-23.705c5.604-5.035,11.095-11.994,16.479-20.879c5.387-8.889,8.076-18.761,8.076-29.616
			c0-6.916-1.289-13.593-3.874-20.027c-2.583-6.437-6.193-12.105-10.834-17.008c-4.646-4.903-10.024-8.75-16.154-11.551
			c-9.46-4.203-20.891-6.304-34.276-6.304c-11.118,0-20.815,1.642-29.089,4.925c-8.273,3.283-15.101,7.592-20.487,12.936
			c-5.384,5.346-9.433,11.299-12.145,17.866c-2.705,6.566-4.073,12.869-4.073,18.911c0,4.99,1.443,8.931,4.331,11.809
			C239.059,269.633,242.701,271.079,247.079,271.079z M426.18,66.219v100.097c0,0.298-0.122,0.566-0.145,0.854v260.102
			c0,16.223-13.209,29.449-29.448,29.449H59.993c-16.239,0-29.451-13.204-29.451-29.449V118.724c0-0.46,0.11-0.887,0.128-1.335
			V66.225c0-6.235,8.048-11.302,17.981-11.302h32.102V33.845C80.752,15.174,95.932,0,114.591,0
			c18.658,0,33.837,15.174,33.837,33.845v21.078h53.002V33.845C201.43,15.174,216.609,0,235.273,0
			c18.656,0,33.836,15.174,33.836,33.845v21.078h48.298V33.845C317.407,15.174,332.586,0,351.244,0
			c18.659,0,33.838,15.174,33.838,33.845v21.078h23.116C418.111,54.922,426.18,59.984,426.18,66.219z M334.226,54.922h34.009V33.845
			c0-9.382-7.623-17.013-16.999-17.013c-9.387,0-17.01,7.631-17.01,17.013V54.922z M218.253,54.922h34.002V33.845
			c0-9.382-7.616-17.013-17.004-17.013c-9.373,0-16.998,7.631-16.998,17.013V54.922z M97.562,54.922h34.022V33.845
			c0-9.382-7.625-17.013-17.007-17.013c-9.378,0-17.015,7.631-17.015,17.013V54.922z M400.778,177.629H55.767v249.646
			c0,2.322,1.894,4.203,4.214,4.203h336.583c2.32,0,4.215-1.881,4.215-4.203V177.629z"/>
	</g>
</g>
<g>
</g>
<g>
</g>
<g>
</g>
<g>
</g>
<g>
</g>
<g>
</g>
<g>
</g>
<g>
</g>
<g>
</g>
<g>
</g>
<g>
</g>
<g>
</g>
<g>
</g>
<g>
</g>
<g>
</g>
</svg>
